# xmcd
#
# Track frame offsets: 
#        150
#        11441
#        21389
#        34186
#        44254
#        56381
#        69201
#        80781
#        92077
#        102228
#        115104
#        127488
#        137858
#        150856
#        161972
#        172753
#        184898
#        200116
#        213358
#        226716
#
# Disc length: 3187 seconds
#
# Revision: 0
# Processed by: cddbd v1.5.2PL0 Copyright (c) Steve Scherf et al.
# Submitted via: ExactAudioCopy v0.99pb5
#
DISCID=0f0c7114
DTITLE=John Lee Hooker - Anthology CD2
DYEAR=1900
DGENRE=Blues
TTITLE0=No Shoes
TTITLE1=I Wanna Walk
TTITLE2=Canal Street Blues
TTITLE3=Run On
TTITLE4=I'm A Stranger
TTITLE5=Whiskey And Wimmen
TTITLE6=Solid Sender
TTITLE7=Sunny Land
TTITLE8=Goin To California
TTITLE9=I Can't Believe
TTITLE10=I'll Know Tonight
TTITLE11=Dusty Road
TTITLE12=Unfriendly Woman
TTITLE13=You've Taken My Woman
TTITLE14=Tennessee Blues
TTITLE15=Burnin'Hell
TTITLE16=Tupelo
TTITLE17=Union Station Blues
TTITLE18=It's My Own Fault
TTITLE19=Crawlin'Black Spider
EXTD=
EXTT0=
EXTT1=
EXTT2=
EXTT3=
EXTT4=
EXTT5=
EXTT6=
EXTT7=
EXTT8=
EXTT9=
EXTT10=
EXTT11=
EXTT12=
EXTT13=
EXTT14=
EXTT15=
EXTT16=
EXTT17=
EXTT18=
EXTT19=
PLAYORDER=
